#!OML:ASF F:\VICON\USERDATA\INSTALL\rory3\rory3.ASF
:FULLY-SPECIFIED
:DEGREES
174
root 2.10334 17.8362 7.53441 -174.123 -7.5917 -180.661
lowerback 4.51413 0.247038 -1.7813
upperback 0.431261 0.233993 2.74155
thorax -2.10778 0.114457 3.81555
lowerneck -19.6751 -3.87229 -10.5181
upperneck 30.3814 -5.19034 4.82622
head 14.0761 -3.33932 2.68501
rclavicle -4.58199e-014 4.29375e-014
rhumerus -10.3338 0.207073 -72.4584
rradius 53.7473
rwrist 5.82529
rhand -26.4328 0.353853
rfingers 7.12502
rthumb 0.127774 -29.6259
lclavicle -4.58199e-014 4.29375e-014
lhumerus -29.6965 6.1897 84.4495
lradius 33.0916
lwrist -8.04592
lhand -12.3762 24.6787
lfingers 7.12502
lthumb 13.6944 54.2082
rfemur -21.8038 -3.50735 23.6349
rtibia 32.7181
rfoot -16.7453 -5.8969
rtoes 16.3655
lfemur -17.5802 -3.64941 -15.9644
ltibia 46.8176
lfoot -7.46086 -3.39864
ltoes -27.0878
175
root 2.15639 17.8417 7.49869 -174.449 -7.54287 -180.507
lowerback 4.74567 0.4785 -1.73928
upperback 0.560088 0.536777 2.7666
thorax -2.12882 0.261493 3.79802
lowerneck -19.7424 -4.05727 -10.4688
upperneck 30.3125 -5.44565 4.81955
head 14.0849 -3.43229 2.62657
rclavicle -9.93923e-017 9.54166e-015
rhumerus -9.09882 0.37427 -72.0576
rradius 54.0539
rwrist 5.86674
rhand -25.7773 0.333118
rfingers 7.12502
rthumb 0.760798 -29.6453
lclavicle -9.93923e-017 9.54166e-015
lhumerus -29.4923 6.1417 84.448
lradius 33.2472
lwrist -8.11575
lhand -12.4084 24.3693
lfingers 7.12502
lthumb 13.6634 53.9009
rfemur -21.1624 -3.24331 23.9516
rtibia 32.429
rfoot -16.8913 -6.04293
rtoes 16.3559
lfemur -18.3717 -3.16146 -15.5504
ltibia 48.6478
lfoot -7.56587 -3.88534
ltoes -26.9165
176
root 2.19255 17.8468 7.47062 -174.523 -7.73364 -180.586
lowerback 4.7695 0.533069 -1.82608
upperback 0.732927 0.59612 2.87061
thorax -1.97098 0.283767 3.95154
lowerneck -20.1808 -4.21295 -10.6062
upperneck 30.2717 -5.48535 4.72869
head 14.1708 -3.45113 2.60221
rclavicle -3.78685e-014 -2.8625e-014
rhumerus -7.47681 0.826525 -71.4514
rradius 54.3406
rwrist 6.04059
rhand -24.958 0.113056
rfingers 7.12502
rthumb 1.55215 -29.861
lclavicle -3.78685e-014 -2.8625e-014
lhumerus -29.2473 6.34667 84.6664
lradius 33.6662
lwrist -7.99723
lhand -12.3033 24.5001
lfingers 7.12502
lthumb 13.7647 54.0248
rfemur -20.8481 -3.36562 24.0068
rtibia 32.1579
rfoot -16.8677 -6.1566
rtoes 16.2375
lfemur -19.5191 -2.9912 -15.444
ltibia 50.4895
lfoot -7.69186 -4.55026
ltoes -27.687
177
root 2.2262 17.8524 7.43884 -174.561 -7.94878 -180.614
lowerback 4.76697 0.652222 -1.76975
upperback 0.772546 0.755907 2.87968
thorax -1.94132 0.361509 3.91862
lowerneck -20.2049 -4.41783 -10.7376
upperneck 30.0998 -5.74848 4.88407
head 14.1385 -3.54112 2.63864
rclavicle 4.77083e-015 -3.97569e-015
rhumerus -6.24526 1.01367 -70.8874
rradius 54.654
rwrist 6.18313
rhand -24.4149 0.554128
rfingers 7.12502
rthumb 2.07662 -29.4155
lclavicle 4.77083e-015 -3.97569e-015
lhumerus -29.2004 6.16588 84.8328
lradius 34.0569
lwrist -7.7777
lhand -12.3427 24.6945
lfingers 7.12502
lthumb 13.7267 54.2217
rfemur -20.4866 -3.45059 24.0568
rtibia 31.8353
rfoot -17.0885 -5.90094
rtoes 17.6725
lfemur -20.7076 -2.76823 -15.2984
ltibia 52.3104
lfoot -8.10201 -5.38405
ltoes -27.6365
178
root 2.25841 17.8599 7.40824 -174.653 -8.07528 -180.556
lowerback 4.89215 0.855 -1.60053
upperback 0.741305 1.03495 2.85294
thorax -2.06275 0.501831 3.77518
lowerneck -20.0802 -4.62908 -10.7565
upperneck 29.9141 -6.09351 5.04634
head 14.0724 -3.65862 2.64461
rclavicle 3.83654e-014 1.35174e-014
rhumerus -5.10313 1.07832 -70.298
rradius 54.8557
rwrist 6.241
rhand -23.6961 0.729767
rfingers 7.12502
rthumb 2.77087 -29.232
lclavicle 3.83654e-014 1.35174e-014
lhumerus -29.1808 5.82759 84.9523
lradius 34.3611
lwrist -7.61372
lhand -12.4194 24.5517
lfingers 7.12502
lthumb 13.6528 54.0839
rfemur -20.0834 -3.5523 24.2043
rtibia 31.4887
rfoot -17.1736 -5.65306
rtoes 18.6964
lfemur -21.8797 -2.45347 -15.0991
ltibia 54.1351
lfoot -8.72182 -5.98053
ltoes -26.7874
179
root 2.2897 17.8738 7.37889 -174.726 -8.21014 -180.523
lowerback 5.04099 1.02517 -1.46924
upperback 0.703076 1.2692 2.83345
thorax -2.20035 0.620071 3.66238
lowerneck -20.127 -4.75823 -10.6634
upperneck 30.0167 -6.32972 5.05303
head 14.1477 -3.75065 2.58674
rclavicle 7.25564e-015 2.8625e-014
rhumerus -3.81863 1.18178 -69.7414
rradius 54.9481
rwrist 6.46586
rhand -23.3357 0.403185
rfingers 7.12502
rthumb 3.11895 -29.5538
lclavicle 7.25564e-015 2.8625e-014
lhumerus -29.2258 5.5681 85.0684
lradius 34.7187
lwrist -7.45138
lhand -12.4606 24.5619
lfingers 7.12502
lthumb 13.6131 54.0968
rfemur -19.7827 -3.80516 24.4178
rtibia 31.0976
rfoot -16.8553 -5.95014
rtoes 17.3192
lfemur -23.1123 -2.14347 -14.943
ltibia 55.9315
lfoot -9.2683 -6.51277
ltoes -25.6074
180
root 2.32127 17.8864 7.34808 -174.821 -8.45239 -180.468
lowerback 5.19527 1.1257 -1.35004
upperback 0.660193 1.40967 2.85953
thorax -2.33925 0.690794 3.60948
lowerneck -20.1047 -4.8476 -10.7688
upperneck 30.1505 -6.52895 5.26129
head 14.2346 -3.82858 2.6522
rclavicle -9.14409e-015 -7.15625e-015
rhumerus -2.44447 1.33652 -69.2032
rradius 54.8869
rwrist 6.69793
rhand -23.2257 0.876943
rfingers 7.12502
rthumb 3.22511 -29.0784
lclavicle -9.14409e-015 -7.15625e-015
lhumerus -29.3883 5.5795 85.1611
lradius 35.1292
lwrist -7.28581
lhand -12.3812 24.9222
lfingers 7.12502
lthumb 13.6896 54.4519
rfemur -19.414 -4.02737 24.6511
rtibia 30.6795
rfoot -16.6496 -6.3354
rtoes 16.13
lfemur -24.3679 -1.86624 -14.7437
ltibia 57.7042
lfoot -9.70469 -7.11486
ltoes -25.4513
181
root 2.35534 17.8984 7.31816 -174.984 -8.65562 -180.423
lowerback 5.42258 1.23964 -1.29964
upperback 0.676299 1.56134 2.91745
thorax -2.4614 0.765504 3.62638
lowerneck -20.1045 -4.98673 -10.9637
upperneck 30.0852 -6.7143 5.45571
head 14.2429 -3.89729 2.72955
rclavicle -1.82882e-014 2.38542e-015
rhumerus -1.0528 1.52521 -68.586
rradius 54.9677
rwrist 6.5043
rhand -22.6905 0.864329
rfingers 7.12502
rthumb 3.74196 -29.0826
lclavicle -1.82882e-014 2.38542e-015
lhumerus -29.3993 5.61413 85.2741
lradius 35.4561
lwrist -7.07796
lhand -12.2104 25.006
lfingers 7.12502
lthumb 13.8542 54.5246
rfemur -18.9089 -4.0673 24.8157
rtibia 30.2848
rfoot -16.6747 -6.50104
rtoes 16.277
lfemur -25.5124 -1.55138 -14.5792
ltibia 59.4462
lfoot -10.2422 -7.54164
ltoes -25.7821
182
root 2.39027 17.9103 7.29361 -175.167 -8.63784 -180.416
lowerback 5.68031 1.44415 -1.29253
upperback 0.754196 1.82938 2.92938
thorax -2.54521 0.897284 3.60946
lowerneck -20.1986 -5.15899 -10.9566
upperneck 29.9547 -6.91878 5.45695
head 14.2286 -3.96726 2.68869
rclavicle -1.33186e-014 -5.08889e-014
rhumerus 0.284112 1.68127 -67.9539
rradius 55.1879
rwrist 6.49723
rhand -22.4092 -0.236462
rfingers 7.12502
rthumb 4.01367 -30.1784
lclavicle -1.33186e-014 -5.08889e-014
lhumerus -29.3023 5.56965 85.3606
lradius 35.7815
lwrist -6.78917
lhand -12.1132 24.8915
lfingers 7.12502
lthumb 13.9479 54.4036
rfemur -18.44 -4.03492 24.935
rtibia 29.9109
rfoot -16.6105 -6.54758
rtoes 16.3669
lfemur -26.6149 -1.06054 -14.5087
ltibia 61.1649
lfoot -10.7856 -7.81991
ltoes -25.6788
183
root 2.41424 17.9206 7.27167 -175.148 -9.07224 -180.607
lowerback 5.79647 1.49543 -1.18478
upperback 0.755777 1.90555 2.78979
thorax -2.60565 0.936106 3.39469
lowerneck -20.2312 -5.33069 -10.8959
upperneck 29.8359 -7.18693 5.53784
head 14.2132 -4.05197 2.65977
rclavicle -3.26007e-014 2.22639e-014
rhumerus 1.60879 1.62868 -67.4283
rradius 55.1532
rwrist 6.87885
rhand -22.8655 -0.749257
rfingers 7.12502
rthumb 3.57297 -30.6991
lclavicle -3.26007e-014 2.22639e-014
lhumerus -29.2766 5.35393 85.3872
lradius 36.1301
lwrist -6.45522
lhand -12.1349 24.883
lfingers 7.12502
lthumb 13.927 54.3966
rfemur -18.1759 -4.37525 24.8476
rtibia 29.5376
rfoot -16.5786 -6.65656
rtoes 16.7149
lfemur -28.0856 -1.0018 -14.6844
ltibia 62.8789
lfoot -11.1172 -7.98608
ltoes -25.4659
184
root 2.44728 17.9346 7.24264 -175.119 -9.12295 -180.698
lowerback 5.78246 1.67616 -1.18869
upperback 0.782907 2.14659 2.71693
thorax -2.58366 1.05662 3.30168
lowerneck -20.2436 -5.52413 -11.0116
upperneck 29.7825 -7.48707 5.74158
head 14.2405 -4.15968 2.70438
rclavicle -8.15017e-015 -2.14687e-014
rhumerus 2.88438 1.43373 -66.9336
rradius 55.0791
rwrist 7.0182
rhand -23.4689 -0.789463
rfingers 7.12502
rthumb 2.99025 -30.7482
lclavicle -8.15017e-015 -2.14687e-014
lhumerus -29.3155 5.29294 85.4058
lradius 36.4595
lwrist -6.39672
lhand -12.1765 24.5588
lfingers 7.12502
lthumb 13.8869 54.0751
rfemur -17.8909 -4.31109 24.8687
rtibia 29.1284
rfoot -16.5275 -6.85516
rtoes 16.8216
lfemur -29.4766 -0.445762 -14.7784
ltibia 64.574
lfoot -11.5814 -8.07971
ltoes -25.8686
185
root 2.4771 17.9534 7.21173 -175.176 -9.17477 -180.704
lowerback 5.79282 1.80879 -1.11556
upperback 0.833944 2.32513 2.70816
thorax -2.54551 1.14317 3.23685
lowerneck -20.2873 -5.68929 -11.1358
upperneck 29.727 -7.69711 5.83842
head 14.2604 -4.24266 2.72334
rclavicle 4.96962e-015 7.15625e-015
rhumerus 4.10844 1.28818 -66.4948
rradius 55.0968
rwrist 6.91887
rhand -23.15 -0.716828
rfingers 7.12502
rthumb 3.29824 -30.6711
lclavicle 4.96962e-015 7.15625e-015
lhumerus -29.3388 5.41718 85.4174
lradius 36.7449
lwrist -6.339
lhand -12.2692 24.2519
lfingers 7.12502
lthumb 13.7976 53.7744
rfemur -17.5228 -4.28837 24.9634
rtibia 28.7296
rfoot -16.4178 -7.02892
rtoes 16.2705
lfemur -30.7515 0.0261279 -14.8017
ltibia 66.2522
lfoot -12.1109 -8.12076
ltoes -25.8535
186
root 2.50633 17.9702 7.18564 -175.173 -9.54745 -180.796
lowerback 5.798 1.85501 -1.04972
upperback 0.84556 2.39069 2.66521
thorax -2.53613 1.1753 3.1497
lowerneck -20.1888 -5.82357 -11.0698
upperneck 29.543 -7.86855 5.76085
head 14.1706 -4.30962 2.64901
rclavicle -1.37161e-014 1.59028e-015
rhumerus 5.40954 1.27039 -65.9464
rradius 55.2013
rwrist 6.54803
rhand -22.4901 -1.13883
rfingers 7.12502
rthumb 3.9355 -31.0822
lclavicle -1.37161e-014 1.59028e-015
lhumerus -29.3022 5.29427 85.4809
lradius 36.9415
lwrist -5.9035
lhand -12.6885 23.7618
lfingers 7.12502
lthumb 13.3934 53.3112
rfemur -17.1953 -4.44727 24.9911
rtibia 28.3132
rfoot -16.439 -7.26533
rtoes 16.4245
lfemur -32.1763 0.221353 -14.9227
ltibia 67.9158
lfoot -12.578 -8.16325
ltoes -25.4532
187
root 2.53331 17.9848 7.16605 -175.177 -9.8125 -180.982
lowerback 5.90075 1.96731 -1.00378
upperback 0.891876 2.54205 2.53038
thorax -2.54716 1.25055 2.969
lowerneck -20.2349 -5.97783 -10.9875
upperneck 29.4262 -8.09727 5.79081
head 14.152 -4.38212 2.60251
rclavicle -3.97569e-016 -1.27222e-014
rhumerus 6.90625 1.24867 -65.2966
rradius 55.1364
rwrist 5.97747
rhand -22.5774 -1.80524
rfingers 7.12502
rthumb 3.85123 -31.7502
lclavicle -3.97569e-016 -1.27222e-014
lhumerus -29.2645 5.22921 85.4588
lradius 37.2579
lwrist -5.655
lhand -12.7162 23.3093
lfingers 7.12502
lthumb 13.3668 52.8605
rfemur -16.8502 -4.51664 24.881
rtibia 27.8728
rfoot -16.3998 -7.39624
rtoes 17.1635
lfemur -33.5967 0.523282 -15.2178
ltibia 69.5651
lfoot -13.0772 -8.02623
ltoes -25.7321
